<svg width="18" height="19" viewBox="0 0 18 19" fill="none" xmlns="http://www.w3.org/2000/svg">
<g clip-path="url(#clip0_1914_6033)">
<path fill-rule="evenodd" clip-rule="evenodd" d="M16.8188 7.72937C16.6795 7.30015 16.2972 6.99568 15.8477 6.95594L11.6719 6.59594L10.035 2.70344C9.86074 2.2858 9.45254 2.01381 9 2.01381C8.54746 2.01381 8.13926 2.2858 7.965 2.70344L6.33305 6.59594L2.15227 6.95805C1.70091 6.99598 1.31632 7.30089 1.17645 7.7317C1.03658 8.16251 1.16872 8.63519 1.51172 8.93102L4.68352 11.7027L3.73289 15.8188C3.63012 16.2592 3.80102 16.7183 4.16672 16.9843C4.53241 17.2503 5.02183 17.2715 5.40914 17.038L8.99508 14.8584L12.5887 17.038C12.9761 17.2715 13.4655 17.2503 13.8312 16.9843C14.1969 16.7183 14.3678 16.2592 14.265 15.8188L13.3151 11.6985L16.4862 8.93102C16.8292 8.63415 16.9603 8.16034 16.8188 7.72937ZM15.7486 8.08094L12.5775 10.8484C12.263 11.122 12.1255 11.5471 12.2203 11.953L13.173 16.0762L9.58219 13.8965C9.22504 13.679 8.77637 13.679 8.41922 13.8965L4.83328 16.0762L5.77969 11.9559C5.87447 11.5499 5.73702 11.1248 5.4225 10.8512L2.25 8.08516C2.24974 8.08306 2.24974 8.08093 2.25 8.07883L6.42938 7.71742C6.84523 7.68077 7.20659 7.41685 7.36805 7.03188L9 3.1443L10.6313 7.03188C10.7927 7.41685 11.1541 7.68077 11.5699 7.71742L15.75 8.07883C15.75 8.07883 15.75 8.08305 15.75 8.08375L15.7486 8.08094Z" fill="#0D78F2"/>
</g>
<defs>
<clipPath id="clip0_1914_6033">
<rect width="18" height="18" fill="white" transform="translate(0 0.888672)"/>
</clipPath>
</defs>
</svg>
