<svg width="18" height="19" viewBox="0 0 18 19" fill="none" xmlns="http://www.w3.org/2000/svg">
<g clip-path="url(#clip0_1914_6020)">
<path fill-rule="evenodd" clip-rule="evenodd" d="M16.4883 8.93102L13.3172 11.6985L14.2671 15.8188C14.3699 16.2592 14.199 16.7183 13.8333 16.9843C13.4676 17.2503 12.9782 17.2715 12.5909 17.038L8.99719 14.8584L5.41125 17.038C5.02394 17.2715 4.53452 17.2503 4.16882 16.9843C3.80312 16.7183 3.63223 16.2592 3.735 15.8188L4.68352 11.7027L1.51172 8.93102C1.16872 8.63519 1.03658 8.16251 1.17645 7.7317C1.31632 7.30089 1.70091 6.99598 2.15227 6.95805L6.33305 6.59594L7.965 2.70344C8.13926 2.2858 8.54746 2.01381 9 2.01381C9.45254 2.01381 9.86074 2.2858 10.035 2.70344L11.6719 6.59594L15.8512 6.95805C16.3026 6.99598 16.6872 7.30089 16.8271 7.7317C16.9669 8.16251 16.8348 8.63519 16.4918 8.93102H16.4883Z" fill="#0D78F2"/>
</g>
<defs>
<clipPath id="clip0_1914_6020">
<rect width="18" height="18" fill="white" transform="translate(0 0.888672)"/>
</clipPath>
</defs>
</svg>
