<svg width="30" height="30" viewBox="0 0 30 30" fill="none" xmlns="http://www.w3.org/2000/svg">
<path d="M30 15C30 12.0333 29.1203 9.13319 27.472 6.66645C25.8238 4.19971 23.4811 2.27713 20.7403 1.14182C17.9994 0.00650024 14.9834 -0.290552 12.0736 0.288227C9.16393 0.867004 6.49119 2.29562 4.3934 4.3934C2.29562 6.49119 0.867004 9.16393 0.288227 12.0736C-0.290552 14.9834 0.00650024 17.9994 1.14182 20.7403C2.27713 23.4811 4.19971 25.8238 6.66645 27.472C9.13319 29.1203 12.0333 30 15 30C18.9782 30 22.7936 28.4196 25.6066 25.6066C28.4196 22.7936 30 18.9782 30 15ZM23.5714 16.0714H10.5536L16.5321 22.0789L15 23.5714L6.42858 15L15 6.42858L16.5321 7.9575L10.5536 13.9286L23.5714 13.9286V16.0714Z" fill="black"/>
</svg>
