<svg width="58" height="19" viewBox="0 0 58 19" fill="none" xmlns="http://www.w3.org/2000/svg">
<g clip-path="url(#clip0_2805_4638)">
<path fill-rule="evenodd" clip-rule="evenodd" d="M36.8188 6.8407C36.6795 6.41148 36.2972 6.107 35.8477 6.06727L31.6719 5.70727L30.035 1.81477V1.81477C29.8607 1.39712 29.4525 1.12514 29 1.12514C28.5475 1.12514 28.1393 1.39712 27.965 1.81477L26.333 5.70727L22.1523 6.06938C21.7009 6.1073 21.3163 6.41222 21.1764 6.84303C21.0366 7.27384 21.1687 7.74652 21.5117 8.04234L24.6835 10.8141L23.7329 14.9302C23.6301 15.3705 23.801 15.8296 24.1667 16.0956C24.5324 16.3616 25.0218 16.3828 25.4091 16.1494L28.9951 13.9697L32.5887 16.1494C32.9761 16.3828 33.4655 16.3616 33.8312 16.0956C34.1969 15.8296 34.3678 15.3705 34.265 14.9302L33.3151 10.8098L36.4862 8.04234C36.8292 7.74548 36.9603 7.27167 36.8188 6.8407V6.8407ZM35.7486 7.19227L32.5775 9.95977C32.263 10.2334 32.1255 10.6584 32.2203 11.0644L33.173 15.1875V15.1875L29.5822 13.0078C29.225 12.7903 28.7764 12.7903 28.4192 13.0078L24.8333 15.1875V15.1875L25.7797 11.0672C25.8745 10.6612 25.737 10.2362 25.4225 9.96258L22.25 7.19648C22.2497 7.19438 22.2497 7.19226 22.25 7.19016L26.4294 6.82875C26.8452 6.7921 27.2066 6.52818 27.368 6.1432L29 2.25563L30.6313 6.1432C30.7927 6.52818 31.1541 6.7921 31.5699 6.82875L35.75 7.19016C35.75 7.19016 35.75 7.19437 35.75 7.19508L35.7486 7.19227Z" fill="#0D78F2"/>
</g>
<path fill-rule="evenodd" clip-rule="evenodd" d="M56.8188 6.8407C56.6795 6.41148 56.2972 6.107 55.8477 6.06727L51.6719 5.70727L50.035 1.81477V1.81477C49.8607 1.39712 49.4525 1.12514 49 1.12514C48.5475 1.12514 48.1393 1.39712 47.965 1.81477L46.333 5.70727L42.1523 6.06938C41.7009 6.1073 41.3163 6.41222 41.1764 6.84303C41.0366 7.27384 41.1687 7.74652 41.5117 8.04234L44.6835 10.8141L43.7329 14.9302C43.6301 15.3705 43.801 15.8296 44.1667 16.0956C44.5324 16.3616 45.0218 16.3828 45.4091 16.1494L48.9951 13.9697L52.5887 16.1494C52.9761 16.3828 53.4655 16.3616 53.8312 16.0956C54.1969 15.8296 54.3678 15.3705 54.265 14.9302L53.3151 10.8098L56.4862 8.04234C56.8292 7.74548 56.9603 7.27167 56.8188 6.8407V6.8407ZM55.7486 7.19227L52.5775 9.95977C52.263 10.2334 52.1255 10.6584 52.2203 11.0644L53.173 15.1875V15.1875L49.5822 13.0078C49.225 12.7903 48.7764 12.7903 48.4192 13.0078L44.8333 15.1875V15.1875L45.7797 11.0672C45.8745 10.6612 45.737 10.2362 45.4225 9.96258L42.25 7.19648C42.2497 7.19438 42.2497 7.19226 42.25 7.19016L46.4294 6.82875C46.8452 6.7921 47.2066 6.52818 47.368 6.1432L49 2.25563L50.6313 6.1432C50.7927 6.52818 51.1541 6.7921 51.5699 6.82875L55.75 7.19016C55.75 7.19016 55.75 7.19437 55.75 7.19508L55.7486 7.19227Z" fill="#0D78F2"/>
<g clip-path="url(#clip1_2805_4638)">
<path fill-rule="evenodd" clip-rule="evenodd" d="M16.4883 8.04234L13.3172 10.8098L14.2671 14.9302C14.3699 15.3705 14.199 15.8296 13.8333 16.0956C13.4676 16.3616 12.9782 16.3828 12.5909 16.1494L8.99719 13.9697L5.41125 16.1494C5.02394 16.3828 4.53452 16.3616 4.16882 16.0956C3.80312 15.8296 3.63223 15.3705 3.735 14.9302L4.68352 10.8141L1.51172 8.04234C1.16872 7.74652 1.03658 7.27384 1.17645 6.84303C1.31632 6.41222 1.70091 6.1073 2.15227 6.06938L6.33305 5.70727L7.965 1.81477C8.13926 1.39712 8.54746 1.12514 9 1.12514C9.45254 1.12514 9.86074 1.39712 10.035 1.81477V1.81477L11.6719 5.70727L15.8512 6.06938C16.3026 6.1073 16.6872 6.41222 16.8271 6.84303C16.9669 7.27384 16.8348 7.74652 16.4918 8.04234H16.4883Z" fill="#0D78F2"/>
</g>
<defs>
<clipPath id="clip0_2805_4638">
<rect width="18" height="18" fill="white" transform="translate(20)"/>
</clipPath>
<clipPath id="clip1_2805_4638">
<rect width="18" height="18" fill="white"/>
</clipPath>
</defs>
</svg>
